<svg width="246" height="17" viewBox="0 0 246 17" fill="none" xmlns="http://www.w3.org/2000/svg">
<path d="M0.000115888 1.34802C0.00752907 1.23688 0.0550204 1.13222 0.133769 1.05347C0.212517 0.974709 0.317171 0.927214 0.428291 0.9198H5.63208C6.92061 0.939354 8.15021 1.46295 9.05734 2.37837C9.96447 3.29378 10.4769 4.52816 10.4849 5.81695C10.4928 7.10573 9.99565 8.34634 9.0999 9.27289C8.20414 10.1994 6.98109 10.7382 5.6929 10.7736H2.87692V15.9804C2.87825 16.0369 2.86808 16.0932 2.84704 16.1458C2.82599 16.1983 2.7945 16.2461 2.75447 16.2861C2.71445 16.3261 2.66671 16.3576 2.61416 16.3787C2.56161 16.3997 2.50533 16.4099 2.44874 16.4086H0.428291C0.371698 16.4099 0.315423 16.3997 0.262872 16.3787C0.210322 16.3576 0.162588 16.3261 0.122559 16.2861C0.0825311 16.2461 0.051041 16.1983 0.0299947 16.1458C0.00894847 16.0932 -0.00121627 16.0369 0.000115888 15.9804V1.34802ZM5.4484 8.08269C5.74602 8.08333 6.04083 8.02517 6.31592 7.91157C6.591 7.79796 6.84094 7.63113 7.05139 7.42066C7.26184 7.2102 7.42865 6.96023 7.54225 6.68512C7.65584 6.41001 7.71399 6.11517 7.71335 5.81752C7.70627 5.52781 7.64195 5.24237 7.5241 4.97763C7.40625 4.71289 7.2372 4.47408 7.02668 4.27496C6.81615 4.07583 6.56832 3.92033 6.29745 3.8174C6.02658 3.71447 5.73802 3.66615 5.4484 3.67522H2.87692V8.08269H5.4484Z" fill="#162A26"/>
<path d="M14.9972 1.34804C14.9907 1.24329 15.0251 1.14012 15.0932 1.06024C15.1613 0.980364 15.2577 0.930026 15.3621 0.919826H21.6668C22.9296 0.915684 24.1436 1.40716 25.048 2.28864C25.9524 3.17011 26.4749 4.37123 26.5032 5.63385C26.4703 6.61759 26.1438 7.56897 25.5656 8.36551C24.9874 9.16206 24.1841 9.76731 23.259 10.1034L26.2587 15.7359C26.3019 15.7973 26.3263 15.8699 26.329 15.945C26.3317 16.02 26.3126 16.0942 26.2739 16.1586C26.2353 16.223 26.1788 16.2748 26.1114 16.3077C26.0439 16.3407 25.9683 16.3533 25.8938 16.3441H23.5729C23.5028 16.3396 23.4344 16.3209 23.3717 16.2894C23.309 16.2578 23.2533 16.214 23.208 16.1604L20.2618 10.2871H17.8132V15.9196C17.8145 15.9761 17.8044 16.0324 17.7833 16.085C17.7623 16.1375 17.7308 16.1853 17.6908 16.2253C17.6507 16.2653 17.603 16.2968 17.5504 16.3179C17.4979 16.3389 17.4416 16.3491 17.385 16.3478H15.3646C15.308 16.3491 15.2517 16.3389 15.1992 16.3179C15.1466 16.2968 15.0989 16.2653 15.0588 16.2253C15.0188 16.1853 14.9873 16.1375 14.9663 16.085C14.9452 16.0324 14.9351 15.9761 14.9364 15.9196V1.34804H14.9972ZM21.4855 7.95984C22.0745 7.9392 22.6328 7.69222 23.0442 7.2703C23.4557 6.84837 23.6886 6.28401 23.6945 5.69468C23.6739 5.12238 23.4331 4.58015 23.0225 4.18103C22.6118 3.78191 22.063 3.55671 21.4904 3.55238H17.8752V7.95984H21.4855Z" fill="#162A26"/>
<path d="M38.4423 0.736454C39.4833 0.736454 40.5142 0.94152 41.476 1.33994C42.4377 1.73837 43.3116 2.32234 44.0478 3.05853C44.7839 3.79472 45.3678 4.66871 45.7662 5.63059C46.1646 6.59247 46.3696 7.6234 46.3696 8.66453C46.3696 9.70566 46.1646 10.7366 45.7662 11.6985C45.3678 12.6604 44.7839 13.5343 44.0478 14.2705C43.3116 15.0067 42.4377 15.5907 41.476 15.9891C40.5142 16.3875 39.4833 16.5926 38.4423 16.5926C37.4032 16.6002 36.373 16.4011 35.4115 16.0069C34.45 15.6127 33.5765 15.0312 32.8418 14.2963C32.1071 13.5614 31.5258 12.6878 31.1318 11.7261C30.7378 10.7645 30.5388 9.73415 30.5466 8.69495C30.5325 7.65115 30.7267 6.61503 31.1177 5.64716C31.5087 4.67929 32.0888 3.79911 32.824 3.05809C33.5592 2.31706 34.4347 1.73007 35.3994 1.33144C36.3641 0.932809 37.3985 0.730537 38.4423 0.736454ZM38.4423 13.7764C39.4472 13.7764 40.4296 13.4783 41.2651 12.92C42.1007 12.3616 42.7519 11.568 43.1365 10.6395C43.521 9.71101 43.6217 8.68931 43.4256 7.70361C43.2296 6.71791 42.7456 5.81249 42.0351 5.10184C41.3245 4.39119 40.4192 3.90724 39.4335 3.71117C38.4479 3.5151 37.4263 3.61573 36.4979 4.00033C35.5695 4.38493 34.776 5.03623 34.2177 5.87186C33.6594 6.7075 33.3614 7.68994 33.3614 8.69495C33.3687 10.0404 33.9064 11.3286 34.8577 12.2799C35.8089 13.2313 37.097 13.769 38.4423 13.7764Z" fill="#162A26"/>
<path d="M58.3365 0.73612C59.3176 0.714871 60.2931 0.887833 61.2071 1.24505C62.121 1.60227 62.9553 2.1367 63.662 2.81759C63.7047 2.85592 63.7388 2.90282 63.7622 2.95522C63.7855 3.00761 63.7976 3.06435 63.7976 3.12172C63.7976 3.1791 63.7855 3.23583 63.7622 3.28823C63.7388 3.34063 63.7047 3.38752 63.662 3.42585L62.3154 4.83823C62.2833 4.88104 62.2418 4.91578 62.1939 4.93972C62.1461 4.96365 62.0934 4.97611 62.0399 4.97611C61.9864 4.97611 61.9337 4.96365 61.8859 4.93972C61.838 4.91578 61.7964 4.88104 61.7644 4.83823C60.8119 4.01405 59.596 3.55793 58.3365 3.55237C57.6768 3.5664 57.0262 3.71077 56.4225 3.97718C55.8187 4.24359 55.2735 4.62678 54.8184 5.10469C54.3632 5.58261 54.007 6.14583 53.7704 6.76193C53.5337 7.37803 53.4212 8.03485 53.4393 8.69461C53.4217 9.66656 53.6885 10.6225 54.2068 11.4448C54.7252 12.2671 55.4726 12.9201 56.357 13.3233C57.2414 13.7265 58.2244 13.8625 59.1851 13.7145C60.1458 13.5665 61.0423 13.1409 61.7644 12.4902C61.8004 12.4536 61.8433 12.4246 61.8906 12.4048C61.9379 12.385 61.9886 12.3748 62.0399 12.3748C62.0912 12.3748 62.1419 12.385 62.1892 12.4048C62.2365 12.4246 62.2794 12.4536 62.3154 12.4902L63.662 13.8977C63.7348 13.9823 63.7749 14.0902 63.7749 14.2018C63.7749 14.3134 63.7348 14.4214 63.662 14.5059C62.2179 15.9002 60.2829 16.6698 58.2757 16.6482C57.2337 16.6572 56.2003 16.4597 55.235 16.0671C54.2698 15.6744 53.3919 15.0944 52.652 14.3606C51.9121 13.6267 51.3249 12.7536 50.9243 11.7915C50.5237 10.8295 50.3176 9.79758 50.318 8.75544C50.3254 6.63085 51.1725 4.59539 52.6747 3.09307C54.1769 1.59075 56.2122 0.743495 58.3365 0.73612Z" fill="#162A26"/>
<path d="M68.1918 1.34804C68.1905 1.29144 68.2007 1.23516 68.2217 1.18261C68.2428 1.13005 68.2742 1.08231 68.3143 1.04228C68.3543 1.00225 68.402 0.970754 68.4546 0.949706C68.5071 0.928657 68.5634 0.918492 68.62 0.919824H70.7013C70.7579 0.918492 70.8141 0.928657 70.8667 0.949706C70.9192 0.970754 70.967 1.00225 71.007 1.04228C71.047 1.08231 71.0785 1.13005 71.0996 1.18261C71.1206 1.23516 71.1308 1.29144 71.1294 1.34804V10.3503C71.1024 10.784 71.1649 11.2187 71.3129 11.6273C71.4609 12.0359 71.6913 12.4097 71.9898 12.7254C72.2884 13.0412 72.6486 13.2923 73.0482 13.4629C73.4478 13.6336 73.8783 13.7203 74.3128 13.7176C74.746 13.7236 75.1759 13.6417 75.5766 13.4767C75.9772 13.3117 76.3402 13.0672 76.6436 12.7578C76.947 12.4485 77.1845 12.0808 77.3417 11.677C77.4989 11.2732 77.5725 10.8418 77.5582 10.4087V1.34804C77.5568 1.29144 77.567 1.23516 77.588 1.18261C77.6091 1.13005 77.6406 1.08231 77.6806 1.04228C77.7206 1.00225 77.7684 0.970754 77.8209 0.949706C77.8735 0.928657 77.9297 0.918492 77.9863 0.919824H80.0676C80.1242 0.918492 80.1805 0.928657 80.233 0.949706C80.2856 0.970754 80.3333 1.00225 80.3733 1.04228C80.4134 1.08231 80.4449 1.13005 80.4659 1.18261C80.4869 1.23516 80.4971 1.29144 80.4958 1.34804V10.5304C80.4731 12.1471 79.8149 13.69 78.6636 14.8253C77.5124 15.9605 75.9606 16.597 74.3438 16.597C72.727 16.597 71.1752 15.9605 70.024 14.8253C68.8727 13.69 68.2146 12.1471 68.1918 10.5304V1.34804Z" fill="#162A26"/>
<path d="M86.3735 1.34804C86.3721 1.29144 86.3823 1.23516 86.4034 1.18261C86.4244 1.13005 86.4559 1.08231 86.4959 1.04228C86.5359 1.00225 86.5837 0.970754 86.6362 0.949706C86.6888 0.928657 86.7451 0.918492 86.8016 0.919824H93.1063C94.3691 0.915683 95.5831 1.40716 96.4875 2.28863C97.3919 3.17011 97.9144 4.37122 97.9427 5.63385C97.9098 6.61759 97.5833 7.56897 97.0051 8.36551C96.4269 9.16206 95.6236 9.76731 94.6986 10.1034L97.6982 15.7359C97.7414 15.7973 97.7658 15.8699 97.7685 15.945C97.7712 16.02 97.7521 16.0942 97.7134 16.1586C97.6748 16.223 97.6183 16.2748 97.5509 16.3077C97.4834 16.3407 97.4078 16.3533 97.3333 16.3441H95.01C94.9399 16.3395 94.8715 16.3209 94.8088 16.2894C94.7461 16.2578 94.6904 16.214 94.645 16.1604L91.6989 10.287H89.2503V15.9195C89.2516 15.9761 89.2414 16.0324 89.2204 16.085C89.1993 16.1375 89.1679 16.1853 89.1278 16.2253C89.0878 16.2653 89.0401 16.2968 88.9875 16.3179C88.935 16.3389 88.8787 16.3491 88.8221 16.3478H86.8016C86.7451 16.3491 86.6888 16.3389 86.6362 16.3179C86.5837 16.2968 86.5359 16.2653 86.4959 16.2253C86.4559 16.1853 86.4244 16.1375 86.4034 16.085C86.3823 16.0324 86.3721 15.9761 86.3735 15.9195V1.34804ZM92.8618 7.95984C93.4499 7.93798 94.007 7.69046 94.4174 7.26866C94.8278 6.84687 95.0601 6.2832 95.0659 5.69468C95.0453 5.12238 94.8045 4.58014 94.3938 4.18103C93.9832 3.78191 93.4344 3.55671 92.8618 3.55238H89.2503V7.95984H92.8618Z" fill="#162A26"/>
<path d="M103.084 1.34804C103.083 1.29144 103.093 1.23516 103.114 1.18261C103.135 1.13005 103.167 1.08231 103.207 1.04228C103.247 1.00225 103.295 0.970754 103.347 0.949706C103.4 0.928657 103.456 0.918492 103.513 0.919824H112.514C112.571 0.918492 112.627 0.928657 112.679 0.949706C112.732 0.970754 112.78 1.00225 112.82 1.04228C112.86 1.08231 112.891 1.13005 112.912 1.18261C112.933 1.23516 112.944 1.29144 112.942 1.34804V3.18499C112.944 3.24159 112.933 3.29787 112.912 3.35042C112.891 3.40298 112.86 3.45072 112.82 3.49075C112.78 3.53078 112.732 3.56228 112.679 3.58332C112.627 3.60437 112.571 3.61454 112.514 3.61321H105.964V7.22506H111.412C111.469 7.22373 111.525 7.23389 111.577 7.25494C111.63 7.27599 111.678 7.30748 111.718 7.34752C111.758 7.38755 111.789 7.43529 111.81 7.48784C111.831 7.5404 111.841 7.59668 111.84 7.65328V9.49023C111.841 9.54683 111.831 9.6031 111.81 9.65566C111.789 9.70822 111.758 9.75596 111.718 9.79599C111.678 9.83602 111.63 9.86751 111.577 9.88856C111.525 9.90961 111.469 9.91978 111.412 9.91844H105.964V13.7748H112.514C112.571 13.7735 112.627 13.7837 112.679 13.8047C112.732 13.8257 112.78 13.8572 112.82 13.8973C112.86 13.9373 112.891 13.985 112.912 14.0376C112.933 14.0902 112.944 14.1464 112.942 14.203V16.04C112.944 16.0966 112.933 16.1529 112.912 16.2054C112.891 16.258 112.86 16.3057 112.82 16.3457C112.78 16.3858 112.732 16.4173 112.679 16.4383C112.627 16.4594 112.571 16.4695 112.514 16.4682H103.513C103.456 16.4695 103.4 16.4594 103.347 16.4383C103.295 16.4173 103.247 16.3858 103.207 16.3457C103.167 16.3057 103.135 16.258 103.114 16.2054C103.093 16.1529 103.083 16.0966 103.084 16.04V1.34804Z" fill="#162A26"/>
<path d="M126.223 0.857763C127.204 0.836515 128.18 1.00948 129.094 1.3667C130.007 1.72392 130.842 2.25834 131.548 2.93923C131.591 2.97757 131.625 3.02446 131.649 3.07686C131.672 3.12926 131.684 3.18599 131.684 3.24336C131.684 3.30074 131.672 3.35747 131.649 3.40987C131.625 3.46227 131.591 3.50916 131.548 3.5475L130.202 4.95501C130.17 4.99782 130.128 5.03256 130.08 5.05649C130.033 5.08042 129.98 5.09288 129.926 5.09288C129.873 5.09288 129.82 5.08042 129.772 5.05649C129.724 5.03256 129.683 4.99782 129.651 4.95501C128.698 4.13082 127.482 3.67471 126.223 3.66915C125.563 3.68317 124.913 3.82755 124.309 4.09396C123.705 4.36036 123.16 4.74355 122.705 5.22147C122.25 5.69939 121.893 6.2626 121.657 6.87871C121.42 7.49481 121.308 8.15163 121.326 8.81139C121.308 9.78334 121.575 10.7392 122.093 11.5616C122.612 12.3839 123.359 13.0368 124.243 13.4401C125.128 13.8433 126.111 13.9793 127.072 13.8313C128.032 13.6832 128.929 13.2577 129.651 12.6069C129.687 12.5704 129.73 12.5414 129.777 12.5216C129.824 12.5018 129.875 12.4916 129.926 12.4916C129.978 12.4916 130.028 12.5018 130.076 12.5216C130.123 12.5414 130.166 12.5704 130.202 12.6069L131.548 14.0145C131.621 14.099 131.661 14.207 131.661 14.3186C131.661 14.4302 131.621 14.5381 131.548 14.6227C130.104 16.017 128.169 16.7866 126.162 16.765C125.121 16.774 124.087 16.5766 123.123 16.1843C122.158 15.7919 121.28 15.2124 120.54 14.4791C119.8 13.7457 119.213 12.8732 118.812 11.9117C118.411 10.9502 118.205 9.91881 118.204 8.87708C118.212 6.75249 119.059 4.71703 120.561 3.21471C122.063 1.7124 124.099 0.865138 126.223 0.857763Z" fill="#8AAA91"/>
<path d="M136.446 1.47008C136.444 1.41348 136.455 1.3572 136.476 1.30465C136.497 1.25209 136.528 1.20435 136.568 1.16432C136.608 1.12429 136.656 1.09279 136.708 1.07175C136.761 1.0507 136.817 1.04053 136.874 1.04186H138.955C139.012 1.04053 139.068 1.0507 139.121 1.07175C139.173 1.09279 139.221 1.12429 139.261 1.16432C139.301 1.20435 139.332 1.25209 139.353 1.30465C139.375 1.3572 139.385 1.41348 139.383 1.47008V16.1024C139.385 16.159 139.375 16.2153 139.353 16.2678C139.332 16.3204 139.301 16.3681 139.261 16.4082C139.221 16.4482 139.173 16.4797 139.121 16.5008C139.068 16.5218 139.012 16.532 138.955 16.5306H136.874C136.817 16.532 136.761 16.5218 136.708 16.5008C136.656 16.4797 136.608 16.4482 136.568 16.4082C136.528 16.3681 136.497 16.3204 136.476 16.2678C136.455 16.2153 136.444 16.159 136.446 16.1024V1.47008Z" fill="#8AAA91"/>
<path d="M145.322 1.47008C145.32 1.41348 145.331 1.3572 145.352 1.30465C145.373 1.25209 145.404 1.20435 145.444 1.16432C145.484 1.12429 145.532 1.09279 145.584 1.07175C145.637 1.0507 145.693 1.04053 145.75 1.04186H152.055C153.317 1.03772 154.531 1.5292 155.436 2.41067C156.34 3.29215 156.863 4.49326 156.891 5.75589C156.858 6.73963 156.532 7.691 155.953 8.48755C155.375 9.28409 154.572 9.88935 153.647 10.2254L156.646 15.8579C156.69 15.9193 156.714 15.992 156.717 16.067C156.719 16.1421 156.7 16.2163 156.662 16.2807C156.623 16.345 156.567 16.3968 156.499 16.4298C156.432 16.4627 156.356 16.4753 156.282 16.4662H153.958C153.888 16.4616 153.82 16.443 153.757 16.4114C153.694 16.3799 153.639 16.336 153.593 16.2825L150.647 10.4091H148.199V16.0416C148.2 16.0982 148.19 16.1545 148.169 16.207C148.148 16.2596 148.116 16.3073 148.076 16.3473C148.036 16.3874 147.988 16.4189 147.936 16.4399C147.883 16.461 147.827 16.4711 147.77 16.4698H145.75C145.693 16.4711 145.637 16.461 145.584 16.4399C145.532 16.4189 145.484 16.3874 145.444 16.3473C145.404 16.3073 145.373 16.2596 145.352 16.207C145.331 16.1545 145.32 16.0982 145.322 16.0416V1.47008ZM151.81 8.08188C152.398 8.06002 152.955 7.8125 153.366 7.3907C153.776 6.96891 154.008 6.40524 154.014 5.81672C153.993 5.24442 153.753 4.70218 153.342 4.30307C152.931 3.90395 152.383 3.67875 151.81 3.67442H148.199V8.08188H151.81Z" fill="#8AAA91"/>
<path d="M168.828 0.857763C169.809 0.836515 170.784 1.00948 171.698 1.3667C172.612 1.72392 173.446 2.25834 174.153 2.93923C174.196 2.97757 174.23 3.02446 174.253 3.07686C174.277 3.12926 174.289 3.18599 174.289 3.24336C174.289 3.30074 174.277 3.35747 174.253 3.40987C174.23 3.46227 174.196 3.50916 174.153 3.5475L172.806 4.95501C172.774 4.99782 172.733 5.03256 172.685 5.05649C172.637 5.08042 172.584 5.09288 172.531 5.09288C172.477 5.09288 172.425 5.08042 172.377 5.05649C172.329 5.03256 172.288 4.99782 172.255 4.95501C171.303 4.13082 170.087 3.67471 168.828 3.66915C168.168 3.68317 167.517 3.82755 166.914 4.09396C166.31 4.36036 165.765 4.74355 165.309 5.22147C164.854 5.69939 164.498 6.2626 164.261 6.87871C164.025 7.49481 163.912 8.15163 163.93 8.81139C163.913 9.78334 164.18 10.7392 164.698 11.5616C165.216 12.3839 165.964 13.0368 166.848 13.4401C167.733 13.8433 168.716 13.9793 169.676 13.8313C170.637 13.6832 171.533 13.2577 172.255 12.6069C172.291 12.5704 172.334 12.5414 172.382 12.5216C172.429 12.5018 172.48 12.4916 172.531 12.4916C172.582 12.4916 172.633 12.5018 172.68 12.5216C172.728 12.5414 172.77 12.5704 172.806 12.6069L174.153 14.0145C174.226 14.099 174.266 14.207 174.266 14.3186C174.266 14.4302 174.226 14.5381 174.153 14.6227C172.709 16.017 170.774 16.7866 168.767 16.765C167.725 16.774 166.692 16.5766 165.727 16.1843C164.762 15.7919 163.885 15.2124 163.145 14.4791C162.405 13.7457 161.818 12.8732 161.417 11.9117C161.016 10.9502 160.809 9.91881 160.809 8.87708C160.808 7.82356 161.014 6.78012 161.416 5.80652C161.819 4.83292 162.41 3.9483 163.154 3.20335C163.899 2.4584 164.784 1.86776 165.757 1.46526C166.731 1.06276 167.774 0.856322 168.828 0.857763Z" fill="#8AAA91"/>
<path d="M178.684 1.47008C178.683 1.41348 178.693 1.3572 178.714 1.30465C178.735 1.25209 178.766 1.20435 178.806 1.16432C178.846 1.12429 178.894 1.09279 178.947 1.07175C178.999 1.0507 179.056 1.04053 179.112 1.04186H181.193C181.25 1.04053 181.306 1.0507 181.359 1.07175C181.411 1.09279 181.459 1.12429 181.499 1.16432C181.539 1.20435 181.571 1.25209 181.592 1.30465C181.613 1.3572 181.623 1.41348 181.622 1.47008V10.4723C181.595 10.9061 181.657 11.3407 181.805 11.7493C181.953 12.1579 182.183 12.5317 182.482 12.8475C182.781 13.1633 183.141 13.4143 183.54 13.585C183.94 13.7557 184.37 13.8424 184.805 13.8397C185.238 13.8457 185.668 13.7637 186.069 13.5987C186.469 13.4338 186.832 13.1892 187.136 12.8799C187.439 12.5705 187.677 12.2028 187.834 11.7991C187.991 11.3953 188.065 10.9638 188.05 10.5307V1.47008C188.049 1.41348 188.059 1.3572 188.08 1.30465C188.101 1.25209 188.133 1.20435 188.173 1.16432C188.213 1.12429 188.261 1.09279 188.313 1.07175C188.366 1.0507 188.422 1.04053 188.479 1.04186H190.56C190.616 1.04053 190.673 1.0507 190.725 1.07175C190.778 1.09279 190.825 1.12429 190.865 1.16432C190.906 1.20435 190.937 1.25209 190.958 1.30465C190.979 1.3572 190.989 1.41348 190.988 1.47008V10.6524C190.965 12.2692 190.307 13.812 189.156 14.9473C188.005 16.0826 186.453 16.719 184.836 16.719C183.219 16.719 181.667 16.0826 180.516 14.9473C179.365 13.812 178.707 12.2692 178.684 10.6524V1.47008Z" fill="#8AAA91"/>
<path d="M196.803 1.47008C196.801 1.41348 196.812 1.3572 196.833 1.30465C196.854 1.25209 196.885 1.20435 196.925 1.16432C196.965 1.12429 197.013 1.09279 197.065 1.07175C197.118 1.0507 197.174 1.04053 197.231 1.04186H199.251C199.308 1.04053 199.364 1.0507 199.417 1.07175C199.469 1.09279 199.517 1.12429 199.557 1.16432C199.597 1.20435 199.629 1.25209 199.65 1.30465C199.671 1.3572 199.681 1.41348 199.679 1.47008V13.8373H205.311C205.368 13.8359 205.424 13.8461 205.477 13.8671C205.529 13.8882 205.577 13.9197 205.617 13.9597C205.657 13.9997 205.689 14.0475 205.71 14.1C205.731 14.1526 205.741 14.2089 205.74 14.2655V16.1024C205.741 16.159 205.731 16.2153 205.71 16.2678C205.689 16.3204 205.657 16.3681 205.617 16.4082C205.577 16.4482 205.529 16.4797 205.477 16.5008C205.424 16.5218 205.368 16.532 205.311 16.5306H197.231C197.174 16.532 197.118 16.5218 197.065 16.5008C197.013 16.4797 196.965 16.4482 196.925 16.4082C196.885 16.3681 196.854 16.3204 196.833 16.2678C196.812 16.2153 196.801 16.159 196.803 16.1024V1.47008Z" fill="#8AAA91"/>
<path d="M208.984 15.9183L215.84 1.04025C215.872 0.969553 215.924 0.909255 215.988 0.866233C216.053 0.823212 216.128 0.799201 216.205 0.796942H216.449C216.528 0.790129 216.607 0.810495 216.674 0.854702C216.74 0.898908 216.789 0.964331 216.814 1.04025L223.618 15.9183C223.65 15.9781 223.665 16.0453 223.662 16.113C223.659 16.1806 223.637 16.2461 223.6 16.3025C223.562 16.359 223.51 16.4043 223.449 16.4336C223.388 16.463 223.321 16.4754 223.253 16.4694H221.356C221.22 16.4789 221.086 16.4415 220.975 16.3635C220.865 16.2855 220.784 16.1717 220.747 16.0412L219.645 13.6532H213.034L211.932 16.0412C211.892 16.1698 211.811 16.2816 211.701 16.3591C211.591 16.4366 211.458 16.4754 211.324 16.4694H209.426C209.354 16.4923 209.275 16.4926 209.202 16.4704C209.129 16.4482 209.065 16.4045 209.017 16.345C208.969 16.2855 208.94 16.2129 208.934 16.1368C208.928 16.0607 208.946 15.9845 208.984 15.9183ZM218.532 11.2043L216.328 6.3674H216.267L214.13 11.2043H218.532Z" fill="#8AAA91"/>
<path d="M227.716 1.47008C227.715 1.41348 227.725 1.3572 227.746 1.30465C227.767 1.25209 227.799 1.20435 227.839 1.16432C227.879 1.12429 227.926 1.09279 227.979 1.07175C228.032 1.0507 228.088 1.04053 228.144 1.04186H234.449C235.712 1.03772 236.926 1.5292 237.83 2.41067C238.735 3.29215 239.257 4.49326 239.286 5.75589C239.253 6.73963 238.926 7.691 238.348 8.48755C237.77 9.28409 236.966 9.88935 236.041 10.2254L239.041 15.8579C239.084 15.9193 239.109 15.992 239.111 16.067C239.114 16.1421 239.095 16.2163 239.056 16.2807C239.018 16.345 238.961 16.3968 238.894 16.4298C238.826 16.4627 238.751 16.4753 238.676 16.4662H236.353C236.283 16.4616 236.214 16.443 236.152 16.4114C236.089 16.3799 236.033 16.336 235.988 16.2825L233.042 10.4091H230.593V16.0416C230.594 16.0982 230.584 16.1545 230.563 16.207C230.542 16.2596 230.511 16.3073 230.471 16.3473C230.431 16.3874 230.383 16.4189 230.33 16.4399C230.278 16.461 230.221 16.4711 230.165 16.4698H228.144C228.088 16.4711 228.032 16.461 227.979 16.4399C227.926 16.4189 227.879 16.3874 227.839 16.3473C227.799 16.3073 227.767 16.2596 227.746 16.207C227.725 16.1545 227.715 16.0982 227.716 16.0416V1.47008ZM234.205 8.08188C234.793 8.06002 235.35 7.8125 235.76 7.3907C236.171 6.96891 236.403 6.40524 236.409 5.81672C236.388 5.24442 236.147 4.70218 235.737 4.30307C235.326 3.90395 234.777 3.67875 234.205 3.67442H230.593V8.08188H234.205Z" fill="#8AAA91"/>
<path d="M243.693 16.5315C244.808 16.5315 245.713 15.6268 245.713 14.5108C245.713 13.3948 244.808 12.4902 243.693 12.4902C242.577 12.4902 241.672 13.3948 241.672 14.5108C241.672 15.6268 242.577 16.5315 243.693 16.5315Z" fill="#8AAA91"/>
</svg>
