<?xml version="1.0" encoding="UTF-8"?>
<svg id="Layer_1" xmlns="http://www.w3.org/2000/svg" viewBox="0 0 22.91 22.91">
  <defs>
    <style>
      .cls-1 {
        stroke-linecap: round;
        stroke-linejoin: round;
      }

      .cls-1, .cls-2 {
        fill: none;
        stroke: #613a18;
        stroke-width: 1.5px;
      }
    </style>
  </defs>
  <path class="cls-1" d="M5.34,19.1h10.11c.36,0,.71-.13.99-.36.28-.23.46-.56.52-.91l2.69-15.8c.06-.36.25-.68.52-.91.28-.23.63-.36.99-.36h1"/>
  <path class="cls-2" d="M7.25,22.16c-.1,0-.2-.04-.27-.11-.07-.07-.11-.17-.11-.27s.04-.2.11-.27c.07-.07.17-.11.27-.11"/>
  <path class="cls-2" d="M7.25,22.16c.1,0,.2-.04.27-.11.07-.07.11-.17.11-.27s-.04-.2-.11-.27c-.07-.07-.17-.11-.27-.11"/>
  <path class="cls-2" d="M14.9,22.16c-.1,0-.2-.04-.27-.11-.07-.07-.11-.17-.11-.27s.04-.2.11-.27c.07-.07.17-.11.27-.11"/>
  <path class="cls-2" d="M14.9,22.16c.1,0,.2-.04.27-.11.07-.07.11-.17.11-.27s-.04-.2-.11-.27c-.07-.07-.17-.11-.27-.11"/>
  <path class="cls-1" d="M17.52,14.51H5.22c-.68,0-1.34-.23-1.88-.65-.54-.42-.92-1.01-1.08-1.67L.77,6.28c-.03-.11-.03-.23,0-.34.02-.11.07-.22.15-.31.07-.09.16-.17.27-.22.1-.05.22-.08.34-.08h17.57"/>
</svg>