<svg width="44" height="35" viewBox="0 0 44 35" fill="none" xmlns="http://www.w3.org/2000/svg">
<g clip-path="url(#clip0_245_644)">
<path d="M40.1928 29.9862C44.3337 25.5062 43.9168 19.7531 43.9036 19.6875V2.1875C43.9036 1.60734 43.6724 1.05094 43.2609 0.640706C42.8493 0.230468 42.2912 0 41.7092 0H28.5425C26.1221 0 24.1536 1.96219 24.1536 4.375V19.6875C24.1536 20.2677 24.3848 20.824 24.7964 21.2343C25.2079 21.6446 25.7661 21.875 26.3481 21.875H33.1025C33.0562 22.9565 32.7321 24.008 32.1612 24.9287C31.0464 26.6809 28.9463 27.8775 25.9157 28.4812L24.1536 28.8312V35H26.3481C32.4552 35 37.114 33.3134 40.1928 29.9862ZM16.0386 29.9862C20.1817 25.5062 19.7625 19.7531 19.7494 19.6875V2.1875C19.7494 1.60734 19.5182 1.05094 19.1066 0.640706C18.6951 0.230468 18.1369 0 17.5549 0H4.38827C1.96781 0 -0.000610352 1.96219 -0.000610352 4.375V19.6875C-0.000610352 20.2677 0.230589 20.824 0.642127 21.2343C1.05366 21.6446 1.61183 21.875 2.19383 21.875H8.94832C8.90197 22.9565 8.57783 24.008 8.0069 24.9287C6.89214 26.6809 4.79206 27.8775 1.76153 28.4812L-0.000610352 28.8312V35H2.19383C8.30099 35 12.9598 33.3134 16.0386 29.9862Z" fill="#7659FF" fill-opacity="0.1"/>
</g>
<defs>
<clipPath id="clip0_245_644">
<rect width="44" height="35" fill="white"/>
</clipPath>
</defs>
</svg>
